<!-- width="1281" height="1720" -->

<svg viewBox="0 0 1281 1720" fill="none" xmlns="http://www.w3.org/2000/svg">
<line x1="0.5" y1="2.4929e-08" x2="0.499914" y2="1720" stroke="white"/>
<line x1="35.0938" y1="2.46959e-08" x2="35.0937" y2="1720" stroke="white"/>
<line x1="69.6875" y1="2.46959e-08" x2="69.6874" y2="1720" stroke="white"/>
<line x1="104.281" y1="2.46959e-08" x2="104.281" y2="1720" stroke="white"/>
<line x1="138.879" y1="2.46959e-08" x2="138.879" y2="1720" stroke="white"/>
<line x1="173.473" y1="2.46959e-08" x2="173.473" y2="1720" stroke="white"/>
<line x1="208.066" y1="2.46959e-08" x2="208.066" y2="1720" stroke="white"/>
<line x1="242.664" y1="2.50415e-08" x2="242.664" y2="1720" stroke="white"/>
<line x1="277.258" y1="2.46959e-08" x2="277.258" y2="1720" stroke="white"/>
<line x1="311.852" y1="2.46959e-08" x2="311.851" y2="1720" stroke="white"/>
<line x1="346.445" y1="2.46959e-08" x2="346.445" y2="1720" stroke="white"/>
<line x1="381.039" y1="2.46959e-08" x2="381.039" y2="1720" stroke="white"/>
<line x1="415.637" y1="2.46819e-08" x2="415.637" y2="1720" stroke="white"/>
<line x1="450.23" y1="2.46819e-08" x2="450.23" y2="1720" stroke="white"/>
<line x1="484.824" y1="2.46959e-08" x2="484.824" y2="1720" stroke="white"/>
<line x1="519.418" y1="2.50415e-08" x2="519.418" y2="1720" stroke="white"/>
<line x1="554.012" y1="2.46959e-08" x2="554.012" y2="1720" stroke="white"/>
<line x1="588.605" y1="2.46959e-08" x2="588.605" y2="1720" stroke="white"/>
<line x1="623.199" y1="2.46959e-08" x2="623.199" y2="1720" stroke="white"/>
<line x1="657.801" y1="2.46959e-08" x2="657.801" y2="1720" stroke="white"/>
<line x1="692.395" y1="2.46959e-08" x2="692.394" y2="1720" stroke="white"/>
<line x1="726.988" y1="2.46959e-08" x2="726.988" y2="1720" stroke="white"/>
<line x1="761.582" y1="2.46959e-08" x2="761.582" y2="1720" stroke="white"/>
<line x1="796.176" y1="2.46959e-08" x2="796.176" y2="1720" stroke="white"/>
<line x1="796.176" y1="2.46959e-08" x2="796.176" y2="1720" stroke="white"/>
<line x1="830.77" y1="2.46819e-08" x2="830.769" y2="1720" stroke="white"/>
<line x1="865.363" y1="2.46819e-08" x2="865.363" y2="1720" stroke="white"/>
<line x1="899.957" y1="2.46959e-08" x2="899.957" y2="1720" stroke="white"/>
<line x1="934.555" y1="2.46959e-08" x2="934.555" y2="1720" stroke="white"/>
<line x1="969.148" y1="2.46959e-08" x2="969.148" y2="1720" stroke="white"/>
<line x1="1003.74" y1="2.46959e-08" x2="1003.74" y2="1720" stroke="white"/>
<line x1="1038.34" y1="2.46959e-08" x2="1038.34" y2="1720" stroke="white"/>
<line x1="1072.93" y1="2.50415e-08" x2="1072.93" y2="1720" stroke="white"/>
<line x1="1107.53" y1="2.46959e-08" x2="1107.53" y2="1720" stroke="white"/>
<line x1="1142.12" y1="2.46959e-08" x2="1142.12" y2="1720" stroke="white"/>
<line x1="1176.72" y1="2.46959e-08" x2="1176.72" y2="1720" stroke="white"/>
<line x1="1211.31" y1="2.46959e-08" x2="1211.31" y2="1720" stroke="white"/>
<line x1="1245.91" y1="2.46819e-08" x2="1245.91" y2="1720" stroke="white"/>
<line x1="1280.5" y1="2.50273e-08" x2="1280.5" y2="1720" stroke="white"/>
</svg>
