<svg width="43" height="43" viewBox="0 0 43 43" fill="none" xmlns="http://www.w3.org/2000/svg">
<path d="M41.0892 21.4704C41.0892 32.1761 32.4105 40.8549 21.7048 40.8549C10.999 40.8549 2.32031 32.1761 2.32031 21.4704C2.32031 10.7647 10.999 2.08594 21.7048 2.08594C32.4105 2.08594 41.0892 10.7647 41.0892 21.4704Z" stroke="white" stroke-opacity="0.5" stroke-width="3"/>
<path d="M21.7048 2.14898C21.7048 1.28392 22.4071 0.576534 23.2697 0.641339C27.6793 0.972599 31.8852 2.69714 35.2681 5.58644C39.0494 8.81592 41.5542 13.2886 42.3321 18.2001C43.11 23.1115 42.1099 28.1393 39.5117 32.3792C36.9135 36.6191 32.8877 39.7928 28.1584 41.3294C23.4291 42.866 18.3068 42.6648 13.7126 40.7618C9.1185 38.8589 5.35412 35.3791 3.09658 30.9485C0.839044 26.5178 0.236508 21.427 1.39735 16.5917C2.43591 12.2658 4.82494 8.39842 8.19759 5.53858C8.85738 4.97911 9.84139 5.13857 10.3499 5.83842V5.83842C10.8583 6.53827 10.6979 7.5128 10.0455 8.08096C7.27277 10.4959 5.30784 13.7226 4.44346 17.323C3.45675 21.433 3.9689 25.7602 5.88781 29.5263C7.80672 33.2923 11.0064 36.2501 14.9115 37.8676C18.8165 39.4851 23.1705 39.6562 27.1904 38.3501C31.2103 37.0439 34.6322 34.3463 36.8407 30.7424C39.0491 27.1385 39.8992 22.8648 39.238 18.6901C38.5768 14.5154 36.4477 10.7136 33.2336 7.96854C30.4181 5.56382 26.9318 4.1083 23.2691 3.78435C22.4074 3.70813 21.7048 3.01404 21.7048 2.14898V2.14898Z" fill="white"/>
</svg>
