<svg width="43" height="42" viewBox="0 0 43 42" fill="none" xmlns="http://www.w3.org/2000/svg">
<path d="M40.5814 20.8845C40.5814 31.5902 31.9027 40.2689 21.197 40.2689C10.4912 40.2689 1.8125 31.5902 1.8125 20.8845C1.8125 10.1787 10.4912 1.5 21.197 1.5C31.9027 1.5 40.5814 10.1787 40.5814 20.8845Z" stroke="white" stroke-opacity="0.5" stroke-width="3"/>
<path d="M40.5151 20.8845C41.3801 20.8845 42.0875 21.5868 42.0227 22.4494C41.733 26.3048 40.3774 30.0156 38.0928 33.16C35.5005 36.7281 31.8451 39.3839 27.6506 40.7468C23.4561 42.1096 18.9378 42.1096 14.7433 40.7468C10.5488 39.3839 6.89342 36.7281 4.30108 33.16C1.70873 29.592 0.3125 25.2948 0.3125 20.8845C0.3125 16.4741 1.70873 12.1769 4.30108 8.60888C6.89342 5.04082 10.5488 2.38503 14.7433 1.02216C18.4399 -0.178924 22.3879 -0.321511 26.1441 0.594394C26.9846 0.799322 27.4339 1.68911 27.1666 2.51183V2.51183C26.8993 3.33455 26.0165 3.77754 25.1734 3.58375C22.0493 2.86567 18.7785 3.00492 15.7114 4.0015C12.146 5.15995 9.03895 7.41736 6.83546 10.4502C4.63196 13.4831 3.44517 17.1356 3.44517 20.8845C3.44517 24.6333 4.63196 28.2858 6.83546 31.3187C9.03895 34.3515 12.146 36.609 15.7114 37.7674C19.2767 38.9259 23.1172 38.9259 26.6826 37.7674C30.2479 36.609 33.355 34.3515 35.5585 31.3187C37.4541 28.7096 38.5972 25.6419 38.8797 22.4488C38.9559 21.5871 39.65 20.8845 40.5151 20.8845V20.8845Z" fill="white"/>
</svg>
