<svg width="43" height="43" viewBox="0 0 43 43" fill="none" xmlns="http://www.w3.org/2000/svg">
<path d="M40.9369 21.4001C40.9369 32.1058 32.2582 40.7845 21.5524 40.7845C10.8467 40.7845 2.16797 32.1058 2.16797 21.4001C2.16797 10.6943 10.8467 2.01562 21.5524 2.01562C32.2582 2.01562 40.9369 10.6943 40.9369 21.4001Z" stroke="white" stroke-opacity="0.5" stroke-width="3"/>
<path d="M21.553 40.7182C21.553 41.5833 20.8508 42.2906 19.9882 42.2258C17.2337 42.0189 14.5421 41.267 12.0717 40.0083C9.13513 38.512 6.59437 36.342 4.65716 33.6757C2.71995 31.0093 1.44128 27.9223 0.925708 24.6671C0.410134 21.4119 0.672291 18.0809 1.69074 14.9464C2.7092 11.8119 4.45503 8.96301 6.7855 6.63254C9.11598 4.30207 11.9649 2.55623 15.0994 1.53778C18.2339 0.519328 21.5649 0.257172 24.8201 0.772747C27.5586 1.20648 30.178 2.18027 32.5281 3.63188C33.2641 4.08648 33.4164 5.07154 32.908 5.77139V5.77139C32.3995 6.47124 31.4231 6.61979 30.6811 6.17497C28.7356 5.00852 26.5801 4.22322 24.33 3.86685C21.5631 3.42861 18.7317 3.65144 16.0674 4.51713C13.4031 5.38281 10.9815 6.86677 9.00063 8.84767C7.01973 10.8286 5.53577 13.2502 4.67009 15.9145C3.8044 18.5788 3.58157 21.4101 4.01981 24.1771C4.45805 26.944 5.54491 29.5679 7.19154 31.8343C8.83817 34.1007 10.9978 35.9452 13.4939 37.217C15.5237 38.2513 17.7291 38.8829 19.9887 39.0828C20.8504 39.159 21.553 39.8531 21.553 40.7182V40.7182Z" fill="white"/>
</svg>
