<svg width="698" height="913" fill="none" xmlns="http://www.w3.org/2000/svg">
<path d="M38.865 857.61C83.055 880.78 132.965 891.66 181.955 899.23C231.045 906.81 280.775 910.46 330.425 911.16C428.315 912.55 533.255 906.82 625.945 872.68C647.595 864.71 672.315 854.34 687.485 836.19C705.495 814.64 693.865 792.62 673.765 777.86C634.725 749.19 581.205 738.41 534.465 730.14C436.315 712.76 334.415 710.77 235.325 720.46C186.055 725.28 136.545 733.02 89.235 747.93C57.035 758.08 -28.645 790.9 11.495 836.9C19.105 845.62 28.985 851.81 38.865 857.62V857.61Z" stroke="white" stroke-width="2" stroke-miterlimit="10"/>
<path d="M349.155 10.04C349.215 10.06 349.285 10.06 349.345 10.04C349.275 10.01 349.205 10.01 349.145 10.04C349.145 10.04 349.145 10.04 349.155 10.04Z" stroke="white" stroke-width="2" stroke-miterlimit="10"/>
<path d="M349.065 812.95C349.065 812.95 349.065 812.95 349.055 812.94C349.115 812.9 349.185 812.9 349.255 812.94C349.195 812.97 349.135 812.97 349.065 812.95Z" stroke="white" stroke-width="2" stroke-miterlimit="10"/>
<path d="M39.135 857.49C83.285 880.64 133.155 891.51 182.095 899.07C231.145 906.64 280.835 910.28 330.435 910.99C428.235 912.38 533.095 906.66 625.695 872.54C647.325 864.57 672.015 854.22 687.175 836.08C705.185 814.54 693.545 792.54 673.475 777.8C634.475 749.16 580.985 738.39 534.295 730.12C436.905 712.87 335.775 710.79 237.435 720.24C187.875 725 138.045 732.68 90.435 747.57C58.105 757.68 -28.565 790.54 11.785 836.78C19.385 845.5 29.265 851.67 39.135 857.48V857.49Z" stroke="white" stroke-width="2" stroke-miterlimit="10"/>
<path d="M348.845 812.74C349.685 812.67 349.495 812.67 348.805 812.7C348.805 812.72 348.825 812.74 348.845 812.74Z" stroke="white" stroke-width="2" stroke-miterlimit="10"/>
<path d="M348.935 11.2899C348.935 11.2899 348.895 11.2699 348.885 11.2399C349.565 11.2099 349.775 11.2199 348.935 11.2899Z" stroke="white" stroke-width="2" stroke-miterlimit="10"/>
<path d="M46.555 861.64C28.385 852.11 1.40502 837.33 1.11502 813.56C0.825018 789.79 27.475 774.28 45.785 765.07C90.825 742.41 142.785 732.61 192.315 725.57C290.695 711.59 392.125 711.18 490.695 723.54C540.085 729.73 590.815 738.78 636.965 758.04C657.205 766.49 682.255 778.06 693.095 798.35C705.665 821.89 684.955 842.02 666.205 853.69C625.005 879.33 573.605 889.79 526.355 897.68C476.195 906.05 425.285 910 374.465 911.06C277.135 913.09 173.915 907.2 81.075 875.71C69.265 871.71 57.845 866.94 46.565 861.64H46.555Z" stroke="white" stroke-width="2" stroke-miterlimit="10"/>
<path d="M349.155 10.04C349.155 10.04 349.155 10.04 349.145 10.03C349.205 9.99 349.275 9.99 349.345 10.03C349.285 10.06 349.215 10.06 349.155 10.03V10.04Z" stroke="white" stroke-width="2" stroke-miterlimit="10"/>
<path d="M349.065 812.95C349.125 812.97 349.195 812.97 349.255 812.95C349.185 812.92 349.115 812.92 349.055 812.95C349.055 812.95 349.055 812.95 349.065 812.96V812.95Z" stroke="white" stroke-width="2" stroke-miterlimit="10"/>
<path d="M46.815 861.52C28.625 851.98 1.755 837.25 1.415 813.48C1.065 789.14 29.275 773.28 48.065 764.06C92.655 742.18 143.615 732.51 192.435 725.57C290.705 711.6 392.095 711.15 490.555 723.54C539.905 729.75 590.575 738.76 636.695 758.01C656.605 766.32 681.035 777.6 692.185 797.2C705.745 821.04 685.175 841.59 665.905 853.58C624.735 879.2 573.385 889.65 526.175 897.53C476.765 905.78 426.625 909.73 376.575 910.85C278.615 913.04 174.735 907.28 81.285 875.59C69.485 871.59 58.075 866.83 46.805 861.53L46.815 861.52Z" stroke="white" stroke-width="2" stroke-miterlimit="10"/>
<path d="M348.845 812.75C348.845 812.75 348.805 812.72 348.795 812.7C349.465 812.67 349.675 812.68 348.845 812.75Z" stroke="white" stroke-width="2" stroke-miterlimit="10"/>
<path d="M348.935 11.28C349.775 11.22 349.585 11.21 348.895 11.24C348.895 11.26 348.915 11.27 348.935 11.28Z" stroke="white" stroke-width="2" stroke-miterlimit="10"/>
<path d="M349.065 812.95H349.075V812.96H349.085H349.095H349.105H349.115L349.125 812.97H349.135H349.145H349.155H349.165H349.175H349.185V812.96H349.195H349.205H349.215H349.225H349.235V812.95H349.245H349.255V812.94V812.93H349.245V812.92H349.235H349.225H349.215L349.205 812.91H349.195H349.185H349.175H349.165H349.155H349.145H349.135H349.125H349.115H349.105L349.095 812.92H349.085H349.075H349.065V812.93H349.055V812.94V812.95H349.065Z" stroke="white" stroke-width="2" stroke-miterlimit="10"/>
<path d="M348.935 11.28H348.945H348.955H348.965M348.965 11.28C348.965 11.28 348.965 11.28 348.975 11.28M348.965 11.28C348.975 11.28 348.975 11.28 348.975 11.28M348.975 11.28H348.985M348.985 11.28C348.985 11.28 348.985 11.28 348.995 11.28M348.985 11.28C348.995 11.28 348.995 11.28 348.995 11.28M348.995 11.28H349.005M349.005 11.28C349.005 11.28 349.005 11.28 349.015 11.28M349.005 11.28C349.015 11.28 349.015 11.28 349.015 11.28M349.015 11.28H349.025M349.025 11.28C349.025 11.28 349.025 11.28 349.035 11.28M349.025 11.28C349.035 11.28 349.035 11.28 349.035 11.28M349.035 11.28H349.045M349.045 11.28C349.045 11.28 349.055 11.28 349.065 11.28H349.085C349.085 11.28 349.095 11.28 349.105 11.28H349.125C349.125 11.28 349.135 11.28 349.145 11.28H349.165C349.165 11.28 349.175 11.28 349.185 11.28H349.205C349.205 11.28 349.215 11.28 349.225 11.28H349.245C349.245 11.28 349.255 11.28 349.265 11.28H349.285C349.285 11.28 349.295 11.28 349.305 11.28H349.325C349.325 11.28 349.335 11.28 349.345 11.28H349.365C349.365 11.28 349.375 11.28 349.385 11.28H349.405M349.045 11.28C349.055 11.28 349.055 11.28 349.055 11.28H349.075C349.085 11.28 349.095 11.28 349.095 11.28H349.115C349.125 11.28 349.135 11.28 349.135 11.28H349.155C349.165 11.28 349.175 11.28 349.175 11.28H349.195C349.205 11.28 349.215 11.28 349.215 11.28H349.235C349.245 11.28 349.255 11.28 349.255 11.28H349.275C349.285 11.28 349.295 11.28 349.295 11.28H349.315C349.325 11.28 349.335 11.28 349.335 11.28H349.355C349.365 11.28 349.375 11.28 349.375 11.28H349.395C349.405 11.28 349.405 11.28 349.405 11.28M349.405 11.28C349.405 11.28 349.405 11.28 349.415 11.28M349.405 11.28H349.415M349.415 11.28H349.425M349.415 11.28C349.425 11.28 349.425 11.28 349.425 11.28M349.425 11.28C349.425 11.28 349.425 11.28 349.435 11.28M349.425 11.28H349.435M349.435 11.28H349.445M349.435 11.28C349.445 11.28 349.445 11.28 349.445 11.28M349.445 11.28C349.445 11.28 349.445 11.28 349.455 11.28M349.445 11.28H349.455M349.455 11.28H349.465M349.455 11.28C349.465 11.28 349.465 11.28 349.465 11.28M349.465 11.28C349.465 11.28 349.465 11.28 349.475 11.28M349.465 11.28H349.475M349.475 11.28H349.485H349.495H349.505" stroke="white" stroke-width="2" stroke-miterlimit="10"/>
<path d="M142.535 842.68C170.995 858.09 204.085 865.03 235.775 870.02C276.125 876.38 317.095 878.74 357.925 878.34C397.905 877.94 438.045 874.83 477.375 867.5C506.565 862.06 539.415 854.99 564.115 837.56C625.435 794.31 502.825 763.21 475.795 758.25C397.255 743.85 314.125 743.55 235.305 756.02C211.535 759.78 76.045 787.85 129.055 833.53C133.165 837.07 137.795 840.04 142.535 842.67V842.68Z" stroke="white" stroke-width="2" stroke-miterlimit="10"/>
<path d="M269.435 228.44C293.245 240.9 324.265 241.96 350.505 241.86C375.485 241.76 407.685 241.21 429.905 227.96C456.945 211.83 412.685 199.38 400.405 197.02C369.845 191.14 337.285 190.98 306.545 195.58C297.115 196.99 244.895 206.49 263.905 224.73C265.465 226.23 267.535 227.43 269.445 228.44H269.435Z" stroke="white" stroke-width="2" stroke-miterlimit="10"/>
<path d="M78.535 749.24C120.885 771.33 169.245 780.8 216.205 787.23C257.395 792.87 299.005 795.48 340.575 795.83C427.045 796.55 523.925 791.95 604.165 756.91C620.465 749.8 640.645 739.98 649.345 723.46C658.465 706.14 646.615 690.45 632.845 680.27C595.925 652.98 544.205 643.76 499.935 636.65C416.975 623.31 331.365 621.99 247.815 630.27C200.755 634.93 152.695 642.33 108.145 658.76C79.985 669.15 21.765 697.47 56.625 733.35C62.975 739.89 70.715 744.66 78.525 749.23L78.535 749.24Z" stroke="white" stroke-width="2" stroke-miterlimit="10"/>
<path d="M189.975 445.48C239.875 472 305.815 473.44 361.125 472.42C392.215 471.85 423.485 469.26 453.995 463.13C475.805 458.75 504.425 453.12 520.925 436.72C555.845 402.02 455.155 382.72 438.815 380.09C379.235 370.5 316.365 370.55 256.835 380.52C240.005 383.34 140.685 403.78 178.885 437.95C182.215 440.93 186.085 443.32 189.985 445.48H189.975Z" stroke="white" stroke-width="2" stroke-miterlimit="10"/>
<path d="M158.075 531.98C185.435 546.57 217.245 552.9 247.635 557.46C286.955 563.35 326.885 565.23 366.615 564.37C405.785 563.53 445.265 559.97 483.555 551.43C507.235 546.15 536.385 539.31 554.665 522.07C596.655 482.44 485.725 458.39 465.815 454.81C387.945 440.8 304.465 440.92 226.745 455.87C205.535 459.95 100.005 485.45 145.905 523.9C149.635 527.03 153.835 529.63 158.095 531.99L158.075 531.98Z" stroke="white" stroke-width="2" stroke-miterlimit="10"/>
<path d="M110.555 662.42C177.995 698.04 264.575 702.54 339.275 703.3C416.165 704.09 502.415 700.25 573.995 669.16C588.295 662.95 605.725 654.51 613.565 640.29C622.335 624.38 611.095 610.17 598.195 600.99C570.105 581 532.915 572.88 499.665 566.53C418.145 550.95 332.655 549.75 250.295 558.85C223.195 561.84 36.875 590.62 90.555 647.78C96.235 653.83 103.365 658.37 110.545 662.43L110.555 662.42Z" stroke="white" stroke-width="2" stroke-miterlimit="10"/>
<path d="M237.655 314.62C265.495 329.25 300.535 331.87 331.355 333.1C367.245 334.53 404.945 332.87 439.645 322.83C450.545 319.68 463.775 315.59 471.365 306.56C471.795 306.07 472.185 305.55 472.525 304.98C472.885 304.48 473.175 303.95 473.415 303.39C473.705 302.89 473.905 302.35 474.035 301.79C475.745 296.06 471.845 290.85 467.475 287.54C445.275 270.2 409.525 267.66 382.675 265.62C345.415 262.79 306.785 263.87 270.225 272.09C256.905 275.08 242.265 278.88 231.215 287.31C228.925 289.01 226.955 291.09 225.475 293.53C224.885 294.52 224.455 295.6 224.205 296.72C224.035 297.24 223.965 297.78 223.975 298.33C223.895 298.87 223.915 299.4 224.015 299.94C224.035 300.49 224.135 301.03 224.325 301.55C224.635 302.68 225.125 303.76 225.755 304.74C226.075 305.3 226.445 305.83 226.875 306.32C229.765 309.86 233.655 312.48 237.645 314.63L237.655 314.62Z" stroke="white" stroke-width="2" stroke-miterlimit="10"/>
<path d="M59.865 854.5C101.355 876.24 148.215 886.37 194.195 893.44C242.945 900.94 292.375 904.21 341.665 904.54C390.955 904.87 444.715 901.99 495.665 894.7C541.285 888.17 588.795 879.14 630.485 858.7C646.085 851.05 665.785 839.88 671.965 822.45C678.075 805.22 665.575 790.35 652.545 780.62C616.155 753.44 565.635 743.37 521.895 735.61C472.695 726.88 422.665 722.85 372.735 721.82C321.695 720.77 270.485 722.91 219.795 729.13C173.025 734.87 125.045 743.29 81.285 761.37C51.255 773.77 2.20502 803.72 37.475 838.51C44.055 845 51.945 849.84 59.865 854.5Z" stroke="white" stroke-width="2" stroke-miterlimit="10"/>
<path d="M317.265 97.14C328.145 102.62 342.225 102.84 354.115 102.39C360.345 102.15 380.825 102.17 384.245 94.85C391.065 80.28 333.595 83.46 326.895 84.98C322.855 85.9 305.405 92.45 317.265 97.14Z" stroke="white" stroke-width="2" stroke-miterlimit="10"/>
<path d="M266.265 824.68C290.995 838 323.635 839.14 351.025 838.98C376.805 838.83 411.095 838.26 433.675 823.75C460.445 806.55 414.935 793.67 402.305 791.18C370.285 784.86 336.045 784.72 303.845 789.79C293.625 791.4 239.575 802.23 261.165 821.31C262.665 822.64 264.505 823.73 266.265 824.68Z" stroke="white" stroke-width="2" stroke-miterlimit="10"/>
<path d="M349.135 144.12C349.185 144.13 349.245 144.13 349.295 144.12C349.245 144.11 349.185 144.11 349.135 144.12Z" stroke="white" stroke-width="2" stroke-miterlimit="10"/>
<path d="M348.855 679.64C349.025 679.7 349.225 679.72 349.395 679.67C349.435 679.66 349.465 679.64 349.495 679.63C349.495 679.63 349.495 679.62 349.505 679.61C349.505 679.61 349.505 679.6 349.505 679.59C349.335 679.5 349.065 679.45 348.875 679.54C348.845 679.56 348.825 679.59 348.805 679.6C348.805 679.6 348.825 679.62 348.835 679.62L348.855 679.64Z" stroke="white" stroke-width="2" stroke-miterlimit="10"/>
<path d="M349.115 367.42C349.115 367.42 349.115 367.42 349.125 367.42C349.165 367.43 349.215 367.43 349.255 367.42C349.255 367.42 349.275 367.42 349.285 367.42C349.235 367.4 349.175 367.41 349.115 367.42Z" stroke="white" stroke-width="2" stroke-miterlimit="10"/>
<path d="M348.885 457.21C349.055 457.28 349.305 457.3 349.475 457.23C349.505 457.22 349.525 457.19 349.545 457.18C349.545 457.18 349.545 457.17 349.545 457.16C349.545 457.16 349.545 457.16 349.545 457.15C349.375 457.07 349.125 457.03 348.935 457.11C348.905 457.12 348.885 457.15 348.855 457.17C348.855 457.17 348.875 457.19 348.885 457.19V457.21Z" stroke="white" stroke-width="2" stroke-miterlimit="10"/>
<path d="M349.085 590.37C349.085 590.37 349.185 590.39 349.235 590.37C349.245 590.37 349.255 590.37 349.265 590.36C349.215 590.34 349.165 590.33 349.105 590.34C349.095 590.34 349.085 590.34 349.065 590.35L349.085 590.37Z" stroke="white" stroke-width="2" stroke-miterlimit="10"/>
<path d="M348.905 234.43C349.075 234.5 349.325 234.52 349.505 234.44C349.535 234.43 349.555 234.4 349.575 234.39C349.415 234.29 349.145 234.23 348.945 234.33C348.905 234.35 348.895 234.38 348.875 234.39C348.875 234.41 348.895 234.42 348.915 234.42L348.905 234.43Z" stroke="white" stroke-width="2" stroke-miterlimit="10"/>
<path d="M349.145 10.03C349.135 103.6 349.125 197.17 349.115 290.74C349.105 399.19 349.095 507.64 349.075 616.1C349.075 681.71 349.065 747.33 349.055 812.94C261.965 810.23 174.855 808.56 87.775 805.85C59.505 804.97 31.245 804.09 2.97501 803.21C43.395 710.61 83.815 618.02 124.225 525.42C170.875 418.52 217.515 311.63 264.165 204.74C292.495 139.84 320.815 74.94 349.145 10.04V10.03Z" stroke="white" stroke-width="2" stroke-miterlimit="10"/>
<path d="M348.805 812.69C348.815 719.6 348.825 626.5 348.835 533.41C348.845 425.12 348.855 316.84 348.875 208.55C348.875 142.78 348.885 77 348.895 11.23C308.885 102.89 268.875 194.54 228.885 286.2C182.015 393.6 135.155 501.01 88.275 608.41C59.945 673.32 31.615 738.23 3.27502 803.14C90.205 805.81 177.165 807.43 264.085 810.1C292.325 810.97 320.565 811.83 348.795 812.7L348.805 812.69Z" stroke="white" stroke-width="2" stroke-miterlimit="10"/>
<path d="M349.125 375.55C349.115 500.23 349.095 624.91 349.085 749.59C349.085 770.7 349.085 791.81 349.085 812.92C278.485 797.21 207.955 781.26 137.355 765.55C117.175 761.06 97.005 756.57 76.825 752.08C115.975 645.57 155.115 539.06 194.265 432.55C226.565 344.66 258.525 256.64 290.825 168.75C310.275 115.84 329.715 62.93 349.165 10.01L349.125 375.55Z" stroke="white" stroke-width="2" stroke-miterlimit="10"/>
<path d="M348.915 448.91C348.925 324.14 348.945 199.37 348.955 74.5901V11.1801C309.775 117.8 270.585 224.42 231.405 331.04C199.445 417.99 167.835 505.07 135.885 592.02C116.275 645.37 96.665 698.72 77.065 752.07C147.935 767.79 218.745 783.77 289.605 799.49C309.365 803.87 329.125 808.26 348.875 812.64L348.915 448.92V448.91Z" stroke="white" stroke-width="2" stroke-miterlimit="10"/>
<path d="M349.195 156.33C349.195 242.42 349.175 328.51 349.165 414.6C349.165 498.88 349.145 583.16 349.135 667.45C349.135 715.94 349.125 764.43 349.115 812.91C310.855 782.91 274.755 750.32 236.495 720.33C249.945 639.04 263.025 557.73 275.635 476.31C292.775 365.62 309.695 254.89 327.055 144.23C334.085 99.44 341.805 54.74 349.205 10.01L349.185 156.34L349.195 156.33Z" stroke="white" stroke-width="2" stroke-miterlimit="10"/>
<path d="M349.055 667.23C349.055 581.3 349.075 495.36 349.085 409.43C349.085 325.3 349.105 241.17 349.115 157.04C349.115 108.41 349.125 59.78 349.135 11.15C335.765 91.98 322.735 172.83 310.195 253.79C292.985 364.91 275.955 476.06 258.575 587.16C251.625 631.61 243.935 675.95 236.595 720.34C274.795 750.23 310.845 782.71 349.035 812.61L349.055 667.24V667.23Z" stroke="white" stroke-width="2" stroke-miterlimit="10"/>
<path d="M349.265 10C349.255 100.2 349.245 190.41 349.235 280.61C349.215 418.91 349.205 557.22 349.185 695.52C349.185 734.65 349.185 773.78 349.175 812.91C377.885 782.33 402.885 748.42 431.595 717.85C421.585 638 412.625 558.04 403.485 478.09C389.575 356.37 375.655 234.66 361.745 112.94C357.815 78.6 353.565 44.31 349.275 10.01L349.265 10Z" stroke="white" stroke-width="2" stroke-miterlimit="10"/>
<path d="M349.235 812.6C349.245 721.83 349.255 631.05 349.265 540.28C349.285 402.59 349.295 264.91 349.315 127.22C349.315 88.53 349.315 49.84 349.325 11.14C359.325 91.02 368.305 171 377.455 250.99C391.355 372.55 405.245 494.11 419.145 615.67C423.045 649.76 427.265 683.8 431.525 717.85C402.865 748.32 377.895 782.12 349.235 812.59V812.6Z" stroke="white" stroke-width="2" stroke-miterlimit="10"/>
<path d="M349.315 10.01C349.305 109.62 349.295 209.24 349.285 308.85C349.275 413.21 349.265 517.58 349.245 621.94C349.245 685.6 349.235 749.26 349.225 812.92C412.965 796.04 476.485 778.36 540.215 761.48L600.775 745.44C569.515 654.52 537.755 563.75 507.035 472.64C474.635 376.55 442.285 280.45 409.315 184.55C389.315 126.37 369.315 68.19 349.315 10.01Z" stroke="white" stroke-width="2" stroke-miterlimit="10"/>
<path d="M349.405 812.63C349.415 713.56 349.425 614.48 349.435 515.41C349.445 411.11 349.455 306.81 349.475 202.51C349.475 138.73 349.485 74.95 349.495 11.17C380.815 102.29 412.615 193.25 443.435 284.54C474.255 375.83 507.735 475.42 540.475 570.66C560.505 628.91 580.525 687.17 600.555 745.42C536.475 762.35 472.615 780.07 408.545 797C388.835 802.21 369.125 807.42 349.415 812.62L349.405 812.63Z" stroke="white" stroke-width="2" stroke-miterlimit="10"/>
<path d="M349.315 302.53C349.315 373.74 349.295 444.94 349.295 516.15C349.295 582.92 349.275 649.69 349.275 716.45C349.275 748.61 349.275 780.77 349.265 812.93C435.595 808.1 521.945 803.9 608.275 799.07C635.755 797.53 663.235 795.99 690.705 794.46C648.555 697.55 606.465 600.61 564.245 503.72C519.715 401.53 475.185 299.34 430.725 197.12C403.595 134.75 376.475 72.39 349.345 10.02L349.315 302.53Z" stroke="white" stroke-width="2" stroke-miterlimit="10"/>
<path d="M349.535 521.78C349.535 450.7 349.555 379.62 349.555 308.54C349.555 241.65 349.575 174.76 349.575 107.88C349.575 75.66 349.575 43.44 349.585 11.22C391.735 108.12 433.815 205.05 476.025 301.92C520.325 403.6 564.645 505.28 608.885 607C636.055 669.47 663.225 731.94 690.395 794.41C604.235 799.19 518.045 803.34 431.885 808.12C404.425 809.64 376.965 811.17 349.495 812.69L349.525 521.79L349.535 521.78Z" stroke="white" stroke-width="2" stroke-miterlimit="10"/>
<path d="M349.325 83.22C349.325 171.37 349.305 259.52 349.295 347.66C349.285 467.82 349.265 587.98 349.255 708.13C349.255 743.07 349.255 778 349.245 812.94C441.315 822.79 533.265 833.8 625.265 844.34C640.985 846.14 656.725 847.84 672.465 849.52C635.485 754.33 598.945 658.97 562.325 563.64C507.025 419.68 451.735 275.72 396.435 131.76C380.835 91.14 365.095 50.58 349.345 10.03V83.22H349.325Z" stroke="white" stroke-width="2" stroke-miterlimit="10"/>
<path d="M349.485 740.07C349.485 652.08 349.505 564.09 349.515 476.1C349.525 355.73 349.545 235.36 349.555 114.99C349.555 80.42 349.555 45.84 349.565 11.27C386.315 105.86 422.625 200.62 459.015 295.35C514.395 439.52 569.765 583.69 625.145 727.86C640.725 768.42 656.435 808.92 672.175 849.42C580.225 839.53 488.395 828.49 396.515 817.92C380.845 816.12 365.165 814.42 349.475 812.73V740.06L349.485 740.07Z" stroke="white" stroke-width="2" stroke-miterlimit="10"/>
<path d="M349.305 10.05C349.295 101.88 349.285 193.71 349.275 285.54C349.265 411.12 349.245 536.71 349.235 662.29C349.235 712.51 349.225 762.73 349.215 812.95C416.215 840.41 484.085 865.66 551.085 893.11C528.605 792.5 505.825 691.98 482.585 591.54C450.545 453.08 418.415 314.65 386.475 176.17C373.725 120.88 361.685 65.42 349.305 10.04V10.05Z" stroke="white" stroke-width="2" stroke-miterlimit="10"/>
<path d="M349.355 812.78C349.365 721.34 349.375 629.91 349.385 538.47C349.395 413.11 349.415 287.75 349.425 162.39C349.425 112.03 349.435 61.6701 349.445 11.3101C371.885 111.72 394.615 212.02 417.805 312.26C449.785 450.5 481.875 588.71 513.755 726.97C526.495 782.22 538.535 837.64 550.895 892.98C484.005 865.51 416.235 840.25 349.345 812.78H349.355Z" stroke="white" stroke-width="2" stroke-miterlimit="10"/>
<path d="M349.245 10.06C349.235 131.57 349.215 253.08 349.205 374.59C349.195 499.6 349.175 624.62 349.165 749.63C349.165 770.61 347.645 792.23 349.185 813.17C351.585 845.74 360.045 878.91 365.015 911.2C362.855 781.94 360.705 652.68 358.545 523.42C356.765 416.8 354.245 310.19 352.475 203.56C351.395 139.06 350.325 74.5601 349.245 10.05V10.06Z" stroke="white" stroke-width="2" stroke-miterlimit="10"/>
<path d="M349.165 812.8C349.175 697.89 349.195 582.98 349.205 468.06C349.215 373.84 349.225 279.62 349.235 185.4C349.235 127.38 349.245 69.36 349.255 11.34C351.415 140.6 353.565 269.85 355.725 399.11C357.495 505.27 360.005 611.42 361.775 717.58C362.855 782.07 363.925 846.56 365.005 911.05C359.955 878.23 354.215 845.62 349.165 812.81V812.8Z" stroke="white" stroke-width="2" stroke-miterlimit="10"/>
<path d="M349.165 229.49C349.165 312.65 349.145 395.81 349.135 478.97C349.135 544.71 349.125 610.45 349.115 676.19C349.115 721.78 349.105 767.37 349.095 812.96C290.955 841.85 232.015 869.04 173.875 897.93C193.835 794.87 213.515 691.76 234.295 588.87C258.575 468.62 283.625 348.5 306.955 228.07C321.035 155.4 335.115 82.7301 349.185 10.0601L349.165 229.5V229.49Z" stroke="white" stroke-width="2" stroke-miterlimit="10"/>
<path d="M349.005 594.66C349.005 511.65 349.025 428.64 349.035 345.63C349.035 279.89 349.045 214.15 349.055 148.42C349.055 102.72 349.065 57.0199 349.075 11.3199C329.025 114.83 309.245 218.39 288.375 321.74C264.275 441.1 239.415 560.34 216.255 679.89C202.185 752.52 188.115 825.15 174.045 897.79C232.095 868.89 290.945 841.69 348.985 812.79L349.005 594.67V594.66Z" stroke="white" stroke-width="2" stroke-miterlimit="10"/>
</svg>
