<svg width="40" height="40" viewBox="0 0 30 30" fill="none" xmlns="http://www.w3.org/2000/svg">
<path fill-rule="evenodd" clip-rule="evenodd" d="M6.35352 8.35859C6.35352 7.25122 7.25125 6.35352 8.35866 6.35352H21.6427C22.7501 6.35352 23.6479 7.25122 23.6479 8.35859V21.6422C23.6479 22.7496 22.7501 23.6473 21.6427 23.6473H8.35866C7.25125 23.6473 6.35352 22.7496 6.35352 21.6422V8.35859ZM8.10802 10.6502H9.46393V12.006H8.10802V10.6502ZM11.9498 10.6502H10.5939V12.006H11.9498V10.6502ZM13.0798 10.6502H14.4922V12.006H13.0798V10.6502ZM16.978 10.6502H15.622V12.006H16.978V10.6502ZM18.1079 10.6502H19.4638V12.006H18.1079V10.6502ZM9.46393 8.1645H8.10802V9.52037H9.46393V8.1645ZM10.5939 8.1645H11.9498V9.52037H10.5939V8.1645ZM14.4922 8.1645H13.0798V9.52037H14.4922V8.1645ZM15.622 8.1645H16.978V9.52037H15.622V8.1645ZM19.4638 8.1645H18.1079V9.52037H19.4638V8.1645ZM21.9497 10.5937V11.9496H20.5938V10.5937H21.9497ZM21.9497 9.46383V8.10796H20.5938V9.46383H21.9497ZM21.9497 13.0795V14.4354L20.5938 14.4354V13.0795H21.9497ZM21.9497 16.9777V15.5653H20.5938V16.9777H21.9497ZM21.9497 18.1075V19.4634H20.5938V18.1075H21.9497ZM21.9497 21.9492V20.5933H20.5938V21.9492L21.9497 21.9492ZM8.10802 13.136H9.46393V14.4918H8.10802V13.136ZM11.9498 13.136H10.5939V14.4918H11.9498V13.136ZM18.1079 13.136H19.4638V14.4918H18.1079V13.136ZM9.46393 15.6217H8.10802V16.9776H9.46393V15.6217ZM10.5939 15.6217H11.9498V16.9776H10.5939V15.6217ZM19.4638 15.6217H18.1079V16.9776H19.4638V15.6217ZM8.10802 18.1075H9.46393V19.4634H8.10802V18.1075ZM11.9498 18.1075H10.5939V19.4634H11.9498V18.1075ZM13.0798 18.1075H14.4922V19.4634H13.0798V18.1075ZM16.978 18.1075H15.622V19.4634H16.978V18.1075ZM18.1079 18.1075H19.4638V19.4634H18.1079V18.1075ZM9.46393 20.5933H8.10802V21.9492H9.46393V20.5933ZM10.5939 20.5933H11.9498V21.9492H10.5939V20.5933ZM14.4922 20.5933H13.0798V21.9492H14.4922V20.5933ZM15.622 20.5933H16.978V21.9492H15.622V20.5933ZM19.4638 20.5933H18.1079V21.9492H19.4638V20.5933Z" fill="white"/>
<path fill-rule="evenodd" clip-rule="evenodd" d="M21.6159 5.91117H8.38601C7.02028 5.91117 5.91314 7.01827 5.91314 8.38396V21.6134C5.91314 22.9791 7.02028 24.0862 8.38601 24.0862H21.6159C22.9816 24.0862 24.0887 22.9791 24.0887 21.6134V8.38396C24.0887 7.01827 22.9816 5.91117 21.6159 5.91117ZM8.38601 5.29297C6.67885 5.29297 5.29492 6.67685 5.29492 8.38396V21.6134C5.29492 23.3205 6.67885 24.7044 8.38601 24.7044H21.6159C23.323 24.7044 24.707 23.3205 24.707 21.6134V8.38396C24.707 6.67685 23.323 5.29297 21.6159 5.29297H8.38601Z" fill="white"/>
<path d="M8.4707 0H9.35307V5.29402H8.4707V0Z" fill="white"/>
<path fill-rule="evenodd" clip-rule="evenodd" d="M9.28519 0.0630241H8.53858V5.231H9.28519V0.0630241ZM8.4707 0V5.29402H9.35307V0H8.4707Z" fill="white"/>
<path d="M10.0586 0H10.941V5.29402H10.0586V0Z" fill="white"/>
<path fill-rule="evenodd" clip-rule="evenodd" d="M10.8731 0.0630241H10.1265V5.231H10.8731V0.0630241ZM10.0586 0V5.29402H10.941V0H10.0586Z" fill="white"/>
<path d="M5.29492 8.11719L5.29492 8.99952L0.000731281 8.99952L0.000731319 8.11719L5.29492 8.11719Z" fill="white"/>
<path fill-rule="evenodd" clip-rule="evenodd" d="M5.2319 8.93165L5.2319 8.18506L0.0637574 8.18506L0.0637574 8.93165L5.2319 8.93165ZM5.29492 8.11719L0.000731319 8.11719L0.000731281 8.99952L5.29492 8.99952L5.29492 8.11719Z" fill="white"/>
<path d="M5.29492 9.70508L5.29492 10.5874L0.000731281 10.5874L0.000731319 9.70508L5.29492 9.70508Z" fill="white"/>
<path fill-rule="evenodd" clip-rule="evenodd" d="M5.2319 10.5195L5.2319 9.77295L0.0637574 9.77295L0.0637574 10.5195L5.2319 10.5195ZM5.29492 9.70508L0.000731319 9.70508L0.000731281 10.5874L5.29492 10.5874L5.29492 9.70508Z" fill="white"/>
<path d="M5.29492 19.5879L5.29492 20.2938L0.000731288 20.2938L0.000731319 19.5879L5.29492 19.5879Z" fill="white"/>
<path fill-rule="evenodd" clip-rule="evenodd" d="M5.2319 20.2395L5.2319 19.6422L0.0637574 19.6422L0.0637574 20.2395L5.2319 20.2395ZM5.29492 19.5879L0.000731319 19.5879L0.000731288 20.2938L5.29492 20.2938L5.29492 19.5879Z" fill="white"/>
<path d="M5.29492 21.1758L5.29492 21.8817L0.000731288 21.8817L0.000731319 21.1758L5.29492 21.1758Z" fill="white"/>
<path fill-rule="evenodd" clip-rule="evenodd" d="M5.2319 21.8274L5.2319 21.2301L0.0637574 21.2301L0.0637574 21.8274L5.2319 21.8274ZM5.29492 21.1758L0.000731319 21.1758L0.000731288 21.8817L5.29492 21.8817L5.29492 21.1758Z" fill="white"/>
<path d="M5.29492 13.7637L5.29492 14.646L0.000731281 14.646L0.000731319 13.7637L5.29492 13.7637Z" fill="white"/>
<path fill-rule="evenodd" clip-rule="evenodd" d="M5.2319 14.5781L5.2319 13.8315L0.0637574 13.8315L0.0637574 14.5781L5.2319 14.5781ZM5.29492 13.7637L0.000731319 13.7637L0.000731281 14.646L5.29492 14.646L5.29492 13.7637Z" fill="white"/>
<path d="M5.29492 15.3535L5.29492 16.2359L0.000731281 16.2359L0.000731319 15.3535L5.29492 15.3535Z" fill="white"/>
<path fill-rule="evenodd" clip-rule="evenodd" d="M5.2319 16.168L5.2319 15.4214L0.0637574 15.4214L0.0637574 16.168L5.2319 16.168ZM5.29492 15.3535L0.000731319 15.3535L0.000731281 16.2359L5.29492 16.2359L5.29492 15.3535Z" fill="white"/>
<path d="M30 8.11719L30 8.99952L24.7058 8.99952L24.7058 8.11719L30 8.11719Z" fill="white"/>
<path fill-rule="evenodd" clip-rule="evenodd" d="M29.937 8.93165L29.937 8.18506L24.7688 8.18506L24.7688 8.93165L29.937 8.93165ZM30 8.11719L24.7058 8.11719L24.7058 8.99952L30 8.99952L30 8.11719Z" fill="white"/>
<path d="M30 9.70508L30 10.5874L24.7058 10.5874L24.7058 9.70508L30 9.70508Z" fill="white"/>
<path fill-rule="evenodd" clip-rule="evenodd" d="M29.937 10.5195L29.937 9.77295L24.7688 9.77295L24.7688 10.5195L29.937 10.5195ZM30 9.70508L24.7058 9.70508L24.7058 10.5874L30 10.5874L30 9.70508Z" fill="white"/>
<path d="M30 19.5879L30 20.2938L24.7058 20.2938L24.7058 19.5879L30 19.5879Z" fill="white"/>
<path fill-rule="evenodd" clip-rule="evenodd" d="M29.937 20.2395L29.937 19.6422L24.7688 19.6422L24.7688 20.2395L29.937 20.2395ZM30 19.5879L24.7058 19.5879L24.7058 20.2938L30 20.2938L30 19.5879Z" fill="white"/>
<path d="M30 21.1758L30 21.8817L24.7058 21.8817L24.7058 21.1758L30 21.1758Z" fill="white"/>
<path fill-rule="evenodd" clip-rule="evenodd" d="M29.937 21.8274L29.937 21.2301L24.7688 21.2301L24.7688 21.8274L29.937 21.8274ZM30 21.1758L24.7058 21.1758L24.7058 21.8817L30 21.8817L30 21.1758Z" fill="white"/>
<path d="M30 13.7637L30 14.646L24.7058 14.646L24.7058 13.7637L30 13.7637Z" fill="white"/>
<path fill-rule="evenodd" clip-rule="evenodd" d="M29.937 14.5781L29.937 13.8315L24.7688 13.8315L24.7688 14.5781L29.937 14.5781ZM30 13.7637L24.7058 13.7637L24.7058 14.646L30 14.646L30 13.7637Z" fill="white"/>
<path d="M30 15.3535L30 16.2359L24.7058 16.2359L24.7058 15.3535L30 15.3535Z" fill="white"/>
<path fill-rule="evenodd" clip-rule="evenodd" d="M29.937 16.168L29.937 15.4214L24.7688 15.4214L24.7688 16.168L29.937 16.168ZM30 15.3535L24.7058 15.3535L24.7058 16.2359L30 16.2359L30 15.3535Z" fill="white"/>
<path d="M19.2363 0H20.1187V5.29402H19.2363V0Z" fill="white"/>
<path fill-rule="evenodd" clip-rule="evenodd" d="M20.0508 0.0630241H19.3042V5.231H20.0508V0.0630241ZM19.2363 0V5.29402H20.1187V0H19.2363Z" fill="white"/>
<path d="M20.6465 0H21.5288V5.29402H20.6465V0Z" fill="white"/>
<path fill-rule="evenodd" clip-rule="evenodd" d="M21.461 0.0630241H20.7144V5.231H21.461V0.0630241ZM20.6465 0V5.29402H21.5288V0H20.6465Z" fill="white"/>
<path d="M8.4707 24.7051H9.35307V29.9991H8.4707V24.7051Z" fill="white"/>
<path fill-rule="evenodd" clip-rule="evenodd" d="M9.28519 24.7681H8.53858V29.9361H9.28519V24.7681ZM8.4707 24.7051V29.9991H9.35307V24.7051H8.4707Z" fill="white"/>
<path d="M10.0586 24.7051H10.941V29.9991H10.0586V24.7051Z" fill="white"/>
<path fill-rule="evenodd" clip-rule="evenodd" d="M10.8731 24.7681H10.1265V29.9361H10.8731V24.7681ZM10.0586 24.7051V29.9991H10.941V24.7051H10.0586Z" fill="white"/>
<path d="M19.2363 24.7051H20.1187V29.9991H19.2363V24.7051Z" fill="white"/>
<path fill-rule="evenodd" clip-rule="evenodd" d="M20.0508 24.7681H19.3042V29.9361H20.0508V24.7681ZM19.2363 24.7051V29.9991H20.1187V24.7051H19.2363Z" fill="white"/>
<path d="M20.6465 24.7051H21.5288V29.9991H20.6465V24.7051Z" fill="white"/>
<path fill-rule="evenodd" clip-rule="evenodd" d="M21.461 24.7681H20.7144V29.9361H21.461V24.7681ZM20.6465 24.7051V29.9991H21.5288V24.7051H20.6465Z" fill="white"/>
</svg>
