<svg width="40" height="40" viewBox="0 0 30 30" fill="none" xmlns="http://www.w3.org/2000/svg">
<path fill-rule="evenodd" clip-rule="evenodd" d="M8.20093 0H9.32243V3.99533H15.6308V0H16.7523V3.99533H19.6262V9.64953H16.4299H16.1631L16.0494 9.89096L14.8934 12.3466C14.8364 12.3399 14.7784 12.3364 14.7196 12.3364C13.9067 12.3364 13.2477 12.9955 13.2477 13.8084C13.2477 14.6214 13.9067 15.2804 14.7196 15.2804C15.5326 15.2804 16.1916 14.6214 16.1916 13.8084C16.1916 13.3557 15.9872 12.9507 15.6657 12.6807L16.6968 10.4907H20.0467H20.4673V10.0701V3.99533H20.6776V0H21.7991V3.99533H22.5C24.4356 3.99533 26.0047 5.56442 26.0047 7.5V8.20093H30V9.32243H26.0047V10.9346H30V12.0561H26.0047V16.1916H30V17.3131H26.0047V20.6776H30V21.7991H26.0047V22.5C26.0047 24.4356 24.4356 26.0047 22.5 26.0047H21.7991V30H20.6776V26.0047H17.3832V21.8073H21.5888H22.0093V21.3867V20.3362C22.6174 20.1553 23.0607 19.592 23.0607 18.9252C23.0607 18.1123 22.4017 17.4533 21.5888 17.4533C20.7758 17.4533 20.1168 18.1123 20.1168 18.9252C20.1168 19.592 20.5602 20.1553 21.1682 20.3362V20.9661H16.9626H16.5421V21.3867V26.0047H14.4393V30H13.3178V26.0047H11.986V22.2586V22.0314L11.7959 21.9068L10.0935 20.7911V18.8643C10.7015 18.6833 11.1449 18.1201 11.1449 17.4533C11.1449 16.6403 10.4858 15.9813 9.6729 15.9813C8.85996 15.9813 8.20093 16.6403 8.20093 17.4533C8.20093 18.1201 8.64431 18.6833 9.25234 18.8643V21.0183V21.2455L9.44237 21.3701L11.1449 22.4858V26.0047H9.32243V30H8.20093V26.0047H7.5C5.56442 26.0047 3.99533 24.4356 3.99533 22.5V22.3598H0V21.2383H3.99533V17.6636H0V16.5421H3.99533V14.229H0V13.1075H3.99533V12.757H8.43255H8.63962L8.76588 12.5929L10.4052 10.462C10.5292 10.4959 10.6597 10.514 10.7944 10.514C11.6073 10.514 12.2664 9.855 12.2664 9.04206C12.2664 8.22911 11.6073 7.57009 10.7944 7.57009C9.98145 7.57009 9.32243 8.22911 9.32243 9.04206C9.32243 9.41447 9.46073 9.75458 9.68878 10.0138L8.22548 11.9159H3.99533V8.69159H0V7.57009H3.99533V7.5C3.99533 5.56442 5.56442 3.99533 7.5 3.99533H8.20093V0ZM8.93692 17.4533C8.93692 17.8597 9.26643 18.1893 9.6729 18.1893C10.0794 18.1893 10.4089 17.8597 10.4089 17.4533C10.4089 17.0468 10.0794 16.7173 9.6729 16.7173C9.26643 16.7173 8.93692 17.0468 8.93692 17.4533ZM21.5888 19.6612C21.1823 19.6612 20.8528 19.3317 20.8528 18.9252C20.8528 18.5188 21.1823 18.1893 21.5888 18.1893C21.9953 18.1893 22.3248 18.5188 22.3248 18.9252C22.3248 19.3317 21.9953 19.6612 21.5888 19.6612ZM10.0584 9.04206C10.0584 9.44853 10.3879 9.77804 10.7944 9.77804C11.2009 9.77804 11.5304 9.44853 11.5304 9.04206C11.5304 8.63558 11.2009 8.30607 10.7944 8.30607C10.3879 8.30607 10.0584 8.63558 10.0584 9.04206ZM14.7196 14.5444C14.3132 14.5444 13.9836 14.2149 13.9836 13.8084C13.9836 13.4019 14.3132 13.0724 14.7196 13.0724C15.1261 13.0724 15.4556 13.4019 15.4556 13.8084C15.4556 14.2149 15.1261 14.5444 14.7196 14.5444Z" fill="white"/>
</svg>
