<svg width="215" height="209" viewBox="0 0 215 209" fill="none" xmlns="http://www.w3.org/2000/svg">
<path d="M24.8594 164.684L24.8594 183.204H6.01011L6.01011 162.203V162.012L5.88278 161.869L0.832031 156.223L0.832031 1.02734L20.9759 1.02734V21.6154V22.1154H21.4759L45.1403 22.1154V50.0598H41.3252H40.8252V50.5598L40.8252 59.2432V59.7432H41.3252L184.517 59.7432V83.6392V84.1392H185.017H209.113V94.8034V95.3034H209.613H213.859L213.859 208.014L175.092 208.014H161.063L148.407 195.078V119.199V118.699H147.907L30.5375 118.699H30.0375V119.199L30.0375 156.27L24.9356 164.418L24.8594 164.54V164.684Z" fill="white" fill-opacity="0.5" stroke="white"/>
</svg>
