<svg width="228" height="77" viewBox="0 0 228 77" fill="none" xmlns="http://www.w3.org/2000/svg">
<path fill-rule="evenodd" clip-rule="evenodd" d="M226.571 11.5108C226.571 11.5488 226.556 11.7017 226.277 11.9793C226.182 12.0739 226.066 12.1737 225.925 12.2779V10.7438C226.066 10.848 226.182 10.9478 226.277 11.0424C226.556 11.32 226.571 11.4729 226.571 11.5108ZM227.571 11.5108C227.571 12.1795 227.007 12.8349 225.925 13.4724V63.2664C227.007 63.9039 227.571 64.5593 227.571 65.228C227.571 71.5852 176.627 76.7388 113.785 76.7388C50.9434 76.7388 0 71.5852 0 65.228C0 64.9697 0.084079 64.7134 0.249619 64.4594H0V11.5108V10.7422H0.249687C4.15942 4.7433 53.4968 0 113.785 0C176.627 0 227.571 5.15358 227.571 11.5108ZM1 11.5108C1 11.5488 1.01453 11.7017 1.2932 11.9793C1.57388 12.2589 2.04505 12.5833 2.75488 12.9342C4.17005 13.6339 6.31981 14.3361 9.17443 15.0188C14.8675 16.3805 23.1474 17.6153 33.4276 18.6553C53.9759 20.734 82.387 22.0217 113.785 22.0217C145.184 22.0217 173.595 20.734 194.143 18.6553C204.423 17.6153 212.703 16.3805 218.396 15.0188C221.251 14.3361 223.401 13.6339 224.816 12.9342C224.853 12.9159 224.889 12.8976 224.925 12.8794V10.5856H225.698C225.458 10.4274 225.166 10.2607 224.816 10.0874C223.401 9.38783 221.251 8.68563 218.396 8.00287C212.703 6.64123 204.423 5.40634 194.143 4.36637C173.595 2.28765 145.184 1 113.785 1C82.387 1 53.9759 2.28765 33.4276 4.36637C23.1474 5.40634 14.8675 6.64123 9.17443 8.00287C6.31981 8.68563 4.17005 9.38783 2.75488 10.0874C2.04505 10.4384 1.57388 10.7628 1.2932 11.0424C1.01453 11.32 1 11.4729 1 11.5108ZM1 63.6952C8.40859 58.0626 56.0806 53.7171 113.785 53.7171C168.214 53.7171 213.717 57.5832 224.925 62.7489V13.9899C213.717 19.1556 168.214 23.0217 113.785 23.0217C56.0806 23.0217 8.40859 18.6763 1 13.0436V63.6952ZM224.816 63.8046C224.853 63.8229 224.889 63.8412 224.925 63.8594V66.1551H225.695C225.456 66.3127 225.165 66.4788 224.816 66.6514C223.401 67.351 221.251 68.0532 218.396 68.736C212.703 70.0976 204.423 71.3325 194.143 72.3725C173.595 74.4512 145.184 75.7388 113.785 75.7388C82.387 75.7388 53.9759 74.4512 33.4276 72.3725C23.1474 71.3325 14.8675 70.0976 9.17443 68.736C6.31981 68.0532 4.17005 67.351 2.75488 66.6514C2.04505 66.3005 1.57388 65.976 1.2932 65.6964C1.01453 65.4188 1 65.266 1 65.228C1 65.19 1.01453 65.0371 1.2932 64.7595C1.57388 64.4799 2.04505 64.1555 2.75488 63.8046C4.17005 63.105 6.31981 62.4028 9.17443 61.72C14.8675 60.3584 23.1474 59.1235 33.4276 58.0835C53.9759 56.0048 82.387 54.7171 113.785 54.7171C145.184 54.7171 173.595 56.0048 194.143 58.0835C204.423 59.1235 212.703 60.3584 218.396 61.72C221.251 62.4028 223.401 63.105 224.816 63.8046ZM226.277 64.7595C226.182 64.6649 226.066 64.5651 225.925 64.4609V65.995C226.066 65.8908 226.182 65.7911 226.277 65.6964C226.556 65.4188 226.571 65.266 226.571 65.228C226.571 65.19 226.556 65.0371 226.277 64.7595Z" fill="white"/>
</svg>
